<svg width="17" height="16" viewBox="0 0 17 16" fill="none" xmlns="http://www.w3.org/2000/svg">
<rect width="17" height="16" fill="#1E1E1E"/>
<g id="Task">
<path d="M-446 -1431C-446 -1432.1 -445.105 -1433 -444 -1433H1772C1773.1 -1433 1774 -1432.1 1774 -1431V1338C1774 1339.1 1773.1 1340 1772 1340H-444C-445.105 1340 -446 1339.1 -446 1338V-1431Z" fill="#404040"/>
<path d="M-444 -1432H1772V-1434H-444V-1432ZM1773 -1431V1338H1775V-1431H1773ZM1772 1339H-444V1341H1772V1339ZM-445 1338V-1431H-447V1338H-445ZM-444 1339C-444.552 1339 -445 1338.55 -445 1338H-447C-447 1339.66 -445.657 1341 -444 1341V1339ZM1773 1338C1773 1338.55 1772.55 1339 1772 1339V1341C1773.66 1341 1775 1339.66 1775 1338H1773ZM1772 -1432C1772.55 -1432 1773 -1431.55 1773 -1431H1775C1775 -1432.66 1773.66 -1434 1772 -1434V-1432ZM-444 -1434C-445.657 -1434 -447 -1432.66 -447 -1431H-445C-445 -1431.55 -444.552 -1432 -444 -1432V-1434Z" fill="white" fill-opacity="0.1"/>
<g id="Landing Updated" clip-path="url(#clip0_0_1)">
<rect width="1440" height="1836" transform="translate(-235 -1206)" fill="white"/>
<g id="Content">
<g id="Trending getaways">
<g id="Trending Getaways">
<g id="Frame 427319059" clip-path="url(#clip1_0_1)">
<g id="Frame 427318957">
<g id="Component 22">
<rect x="-151" y="-251.5" width="309" height="439" rx="10.5" fill="white"/>
<rect x="-151" y="-251.5" width="309" height="439" rx="10.5" stroke="#E6E6E6"/>
<g id="Group 2138">
<g id="Frame 427318998">
<g id="Frame 427319055">
<g id="Group 2110">
<g id="material-symbols-light:star">
<path id="Vector" d="M4.78885 13.4054L5.7733 9.1873L2.5 6.35144L6.81174 5.9783L8.5004 2L10.1891 5.97751L14.5 6.35064L11.2275 9.1865L12.2119 13.4046L8.5004 11.1657L4.78885 13.4054Z" fill="black"/>
</g>
</g>
</g>
</g>
</g>
</g>
</g>
</g>
</g>
</g>
</g>
</g>
</g>
<defs>
<clipPath id="clip0_0_1">
<rect width="1440" height="1836" fill="white" transform="translate(-235 -1206)"/>
</clipPath>
<clipPath id="clip1_0_1">
<rect width="1301" height="463" fill="white" transform="translate(-165 -264)"/>
</clipPath>
</defs>
</svg>
