<svg width="23" height="22" viewBox="0 0 23 22" fill="none" xmlns="http://www.w3.org/2000/svg">
<path d="M12.9894 10.2894C12.8862 10.3927 12.7461 10.4507 12.6 10.4507C12.454 10.4507 12.3139 10.3927 12.2106 10.2894C12.1074 10.1862 12.0493 10.0461 12.0493 9.90004C12.0493 9.75398 12.1074 9.61391 12.2106 9.51064L16.6106 5.11064C16.6618 5.0595 16.7225 5.01894 16.7893 4.99126C16.8561 4.96359 16.9277 4.94934 17 4.94934C17.0724 4.94934 17.144 4.96359 17.2108 4.99126C17.2776 5.01894 17.3383 5.0595 17.3894 5.11064C17.4406 5.16177 17.4811 5.22248 17.5088 5.28929C17.5365 5.35611 17.5507 5.42772 17.5507 5.50004C17.5507 5.57235 17.5365 5.64396 17.5088 5.71078C17.4811 5.77759 17.4406 5.8383 17.3894 5.88944L12.9894 10.2894ZM6.38944 16.8894C6.3383 16.9406 6.27759 16.9811 6.21078 17.0088C6.14396 17.0365 6.07235 17.0507 6.00004 17.0507C5.92772 17.0507 5.85611 17.0365 5.78929 17.0088C5.72248 16.9811 5.66177 16.9406 5.61064 16.8894C5.5595 16.8383 5.51894 16.7776 5.49126 16.7108C5.46359 16.644 5.44934 16.5724 5.44934 16.5C5.44934 16.4277 5.46359 16.3561 5.49126 16.2893C5.51894 16.2225 5.5595 16.1618 5.61064 16.1106L10.0106 11.7106C10.1139 11.6074 10.254 11.5493 10.4 11.5493C10.5461 11.5493 10.6862 11.6074 10.7894 11.7106C10.8927 11.8139 10.9507 11.954 10.9507 12.1C10.9507 12.2461 10.8927 12.3862 10.7894 12.4894L6.38944 16.8894Z" fill="black"/>
<path d="M6.00032 17.0503C5.85445 17.0503 5.71455 16.9924 5.61141 16.8892C5.50826 16.7861 5.45032 16.6462 5.45032 16.5003C5.45032 16.3544 5.50826 16.2146 5.61141 16.1114C5.71455 16.0083 5.85445 15.9503 6.00032 15.9503H10.4003C10.5462 15.9503 10.6861 16.0083 10.7892 16.1114C10.8924 16.2146 10.9503 16.3544 10.9503 16.5003C10.9503 16.6462 10.8924 16.7861 10.7892 16.8892C10.6861 16.9924 10.5462 17.0503 10.4003 17.0503H6.00032Z" fill="black"/>
<path d="M6.55032 16.5003C6.55032 16.6462 6.49237 16.7861 6.38923 16.8892C6.28608 16.9924 6.14619 17.0503 6.00032 17.0503C5.85445 17.0503 5.71455 16.9924 5.61141 16.8892C5.50826 16.7861 5.45032 16.6462 5.45032 16.5003V12.1003C5.45032 11.9544 5.50826 11.8146 5.61141 11.7114C5.71455 11.6083 5.85445 11.5503 6.00032 11.5503C6.14619 11.5503 6.28608 11.6083 6.38923 11.7114C6.49237 11.8146 6.55032 11.9544 6.55032 12.1003V16.5003ZM17.5503 9.90032C17.5503 10.0462 17.4924 10.1861 17.3892 10.2892C17.2861 10.3924 17.1462 10.4503 17.0003 10.4503C16.8544 10.4503 16.7146 10.3924 16.6114 10.2892C16.5083 10.1861 16.4503 10.0462 16.4503 9.90032V5.50032C16.4503 5.35445 16.5083 5.21455 16.6114 5.11141C16.7146 5.00826 16.8544 4.95032 17.0003 4.95032C17.1462 4.95032 17.2861 5.00826 17.3892 5.11141C17.4924 5.21455 17.5503 5.35445 17.5503 5.50032V9.90032Z" fill="black"/>
<path d="M12.5999 6.05032C12.4541 6.05032 12.3142 5.99237 12.211 5.88923C12.1079 5.78608 12.0499 5.64619 12.0499 5.50032C12.0499 5.35445 12.1079 5.21455 12.211 5.11141C12.3142 5.00826 12.4541 4.95032 12.5999 4.95032H16.9999C17.1458 4.95032 17.2857 5.00826 17.3888 5.11141C17.492 5.21455 17.5499 5.35445 17.5499 5.50032C17.5499 5.64619 17.492 5.78608 17.3888 5.88923C17.2857 5.99237 17.1458 6.05032 16.9999 6.05032H12.5999Z" fill="black"/>
</svg>
