<svg width="34" height="34" viewBox="0 0 34 34" fill="none" xmlns="http://www.w3.org/2000/svg">
<path d="M27.7772 9.90893C27.6696 9.48677 27.3636 9.16802 27.0137 9.07027C26.3932 8.89602 23.3771 8.49935 17.0021 8.49935C10.6271 8.49935 7.6124 8.89602 6.98765 9.07027C6.64198 9.1666 6.33598 9.48535 6.2269 9.90893C6.07248 10.5096 5.66873 13.0256 5.66873 16.9993C5.66873 20.9717 6.07248 23.4877 6.2269 24.0912C6.33457 24.5119 6.64057 24.8307 6.98907 24.927C7.6124 25.1027 10.6257 25.4993 17.0007 25.4993C23.3757 25.4993 26.3917 25.1027 27.0151 24.9284C27.3607 24.8321 27.6667 24.5133 27.7758 24.0898C27.9317 23.4891 28.334 20.966 28.334 16.9993C28.334 13.0327 27.9317 10.511 27.7772 9.90893ZM30.5199 9.20485C31.1673 11.7293 31.1673 16.9993 31.1673 16.9993C31.1673 16.9993 31.1673 22.2694 30.5199 24.7938C30.1601 26.1893 29.1075 27.2872 27.7744 27.6583C25.3547 28.3327 17.0007 28.3327 17.0007 28.3327C17.0007 28.3327 8.65223 28.3327 6.2269 27.6583C4.88815 27.2815 3.83698 26.185 3.4814 24.7938C2.83398 22.2694 2.83398 16.9993 2.83398 16.9993C2.83398 16.9993 2.83398 11.7293 3.4814 9.20485C3.84123 7.80943 4.89382 6.71152 6.2269 6.34035C8.65365 5.66602 17.0021 5.66602 17.0021 5.66602C17.0021 5.66602 25.3547 5.66602 27.7758 6.34035C29.1132 6.71718 30.1657 7.81368 30.5213 9.20485M14.1687 21.9577V12.041L22.6687 16.9993L14.1687 21.9577Z" fill="black"/>
</svg>
