<svg width="33" height="34" viewBox="0 0 33 34" fill="none" xmlns="http://www.w3.org/2000/svg">
<path d="M28.875 11.3333V22.6667C28.875 24.5453 28.1507 26.347 26.8614 27.6753C25.572 29.0037 23.8234 29.75 22 29.75H11C9.17664 29.75 7.42795 29.0037 6.13864 27.6753C4.84933 26.347 4.125 24.5453 4.125 22.6667V11.3333C4.125 9.45472 4.84933 7.65304 6.13864 6.32466C7.42795 4.99628 9.17664 4.25 11 4.25H22C23.8234 4.25 25.572 4.99628 26.8614 6.32466C28.1507 7.65304 28.875 9.45472 28.875 11.3333Z" stroke="black" stroke-width="1.5" stroke-linecap="round" stroke-linejoin="round"/>
<path d="M15.125 29.7507V17.0007C15.125 13.9024 15.8125 11.334 20.625 11.334M12.375 18.4173H20.625" stroke="black" stroke-width="1.5" stroke-linecap="round" stroke-linejoin="round"/>
</svg>
