<svg width="17" height="16" viewBox="0 0 17 16" fill="none" xmlns="http://www.w3.org/2000/svg">
<path d="M3.91003 10.2875V12.2045C4.49563 12.9226 5.23386 13.5012 6.07107 13.8983C6.90828 14.2954 7.82344 14.5009 8.75003 14.5C10.912 14.5 12.818 13.402 13.94 11.7335V9.04651C13.556 11.568 11.3785 13.5 8.75003 13.5C6.57303 13.5 4.70553 12.175 3.91003 10.2875ZM13.015 5.18801V4.32701C13.0136 4.13711 13.0447 3.94838 13.107 3.76901C11.9416 2.63278 10.3777 1.99782 8.75003 2.00001C7.29346 1.99784 5.88225 2.50653 4.76203 3.43751L4.76453 3.46801L4.76503 3.48151V4.83151C5.25743 4.25636 5.86866 3.79479 6.55662 3.47861C7.24458 3.16242 7.9929 2.99914 8.75003 3.00001C10.507 3.00001 12.062 3.86301 13.015 5.18801Z" fill="#787878"/>
<path d="M12.75 8.25039C12.75 9.31126 12.3286 10.3287 11.5784 11.0788C10.8283 11.829 9.81087 12.2504 8.75 12.2504C7.68913 12.2504 6.67172 11.829 5.92157 11.0788C5.17143 10.3287 4.75 9.31126 4.75 8.25039C4.75 7.18953 5.17143 6.17211 5.92157 5.42196C6.67172 4.67182 7.68913 4.25039 8.75 4.25039C9.81087 4.25039 10.8283 4.67182 11.5784 5.42196C12.3286 6.17211 12.75 7.18953 12.75 8.25039ZM8.75 11.7504C9.20963 11.7504 9.66475 11.6599 10.0894 11.484C10.514 11.3081 10.8999 11.0503 11.2249 10.7253C11.5499 10.4003 11.8077 10.0144 11.9836 9.58978C12.1595 9.16514 12.25 8.71002 12.25 8.25039C12.25 7.79076 12.1595 7.33564 11.9836 6.911C11.8077 6.48636 11.5499 6.10052 11.2249 5.77552C10.8999 5.45051 10.514 5.1927 10.0894 5.01681C9.66475 4.84092 9.20963 4.75039 8.75 4.75039C7.82174 4.75039 6.9315 5.11914 6.27513 5.77552C5.61875 6.4319 5.25 7.32213 5.25 8.25039C5.25 9.17865 5.61875 10.0689 6.27513 10.7253C6.9315 11.3816 7.82174 11.7504 8.75 11.7504ZM15.495 3.97039C15.495 3.52039 15.13 3.15539 14.68 3.15539C14.03 3.15539 13.51 3.68039 13.515 4.32539V7.10039C13.515 7.72689 13.878 8.28789 14.44 8.54189V12.8504C14.44 13.1104 14.65 13.3204 14.91 13.3204H15.025C15.285 13.3204 15.495 13.1104 15.495 12.8504V3.97039ZM3.91 3.15539C3.81983 3.15539 3.73335 3.19121 3.66958 3.25497C3.60582 3.31874 3.57 3.40522 3.57 3.49539V4.84039C3.57 4.94039 3.49 5.01539 3.395 5.01539C3.295 5.01539 3.22 4.93539 3.22 4.84039V3.51039C3.22 3.32539 3.075 3.16039 2.89 3.15539C2.695 3.15039 2.535 3.30539 2.535 3.49539V4.84039C2.535 4.94039 2.455 5.01539 2.36 5.01539C2.26 5.01539 2.185 4.93539 2.185 4.84039V3.51039C2.185 3.32539 2.04 3.16039 1.855 3.15539C1.66 3.15039 1.5 3.30539 1.5 3.49539V5.78539C1.5 6.23639 1.7185 6.63889 2.0545 6.88989C2.355 7.05939 2.355 7.83539 2.355 7.83539V12.8454C2.355 13.1054 2.565 13.3154 2.825 13.3154H2.94C3.2 13.3154 3.41 13.1054 3.41 12.8454V7.83539C3.41 7.83539 3.41 7.08989 3.7105 6.88989C3.8825 6.76164 4.0222 6.59501 4.11846 6.40326C4.21473 6.21152 4.2649 5.99995 4.265 5.78539V3.49539C4.25994 3.40428 4.22046 3.31849 4.15456 3.25537C4.08866 3.19225 4.00125 3.15652 3.91 3.15539Z" fill="#787878"/>
</svg>
