<svg width="34" height="34" viewBox="0 0 34 34" fill="none" xmlns="http://www.w3.org/2000/svg">
<path d="M17.0007 22.6673C18.5035 22.6673 19.9449 22.0703 21.0076 21.0076C22.0703 19.9449 22.6673 18.5035 22.6673 17.0007C22.6673 15.4978 22.0703 14.0564 21.0076 12.9937C19.9449 11.931 18.5035 11.334 17.0007 11.334C15.4978 11.334 14.0564 11.931 12.9937 12.9937C11.931 14.0564 11.334 15.4978 11.334 17.0007C11.334 18.5035 11.931 19.9449 12.9937 21.0076C14.0564 22.0703 15.4978 22.6673 17.0007 22.6673Z" stroke="black" stroke-width="1.5" stroke-linecap="round" stroke-linejoin="round"/>
<path d="M4.25 22.6667V11.3333C4.25 9.45472 4.99628 7.65304 6.32466 6.32466C7.65304 4.99628 9.45472 4.25 11.3333 4.25H22.6667C24.5453 4.25 26.347 4.99628 27.6753 6.32466C29.0037 7.65304 29.75 9.45472 29.75 11.3333V22.6667C29.75 24.5453 29.0037 26.347 27.6753 27.6753C26.347 29.0037 24.5453 29.75 22.6667 29.75H11.3333C9.45472 29.75 7.65304 29.0037 6.32466 27.6753C4.99628 26.347 4.25 24.5453 4.25 22.6667Z" stroke="black" stroke-width="1.5"/>
<path d="M24.792 9.22321L24.8067 9.20703" stroke="black" stroke-width="1.5" stroke-linecap="round" stroke-linejoin="round"/>
</svg>
