<svg width="31" height="30" viewBox="0 0 31 30" fill="none" xmlns="http://www.w3.org/2000/svg">
<circle cx="15.5" cy="15" r="15" fill="white"/>
<path d="M19.8751 17.5C19.4072 17.5024 18.9459 17.6097 18.5251 17.8142C18.1043 18.0186 17.7348 18.3149 17.4438 18.6813L12.8751 15.825C13.0416 15.2876 13.0416 14.7124 12.8751 14.175L17.4438 11.3188C17.9075 11.893 18.5595 12.2845 19.2843 12.424C20.009 12.5635 20.7598 12.442 21.4035 12.081C22.0473 11.72 22.5425 11.1428 22.8014 10.4517C23.0603 9.76051 23.0662 9.00002 22.8181 8.3049C22.5701 7.60979 22.0839 7.02492 21.4459 6.6539C20.8079 6.28288 20.0591 6.14966 19.3323 6.27784C18.6054 6.40602 17.9474 6.78732 17.4748 7.35421C17.0021 7.92109 16.7454 8.63696 16.7501 9.37501C16.753 9.65449 16.7951 9.93219 16.8751 10.2L12.3063 13.0563C11.903 12.5485 11.3516 12.1788 10.7288 11.9984C10.1059 11.818 9.44234 11.8358 8.83006 12.0494C8.21778 12.263 7.68711 12.6618 7.31161 13.1904C6.93611 13.7191 6.73438 14.3515 6.73438 15C6.73438 15.6485 6.93611 16.2809 7.31161 16.8096C7.68711 17.3383 8.21778 17.737 8.83006 17.9506C9.44234 18.1642 10.1059 18.182 10.7288 18.0016C11.3516 17.8212 11.903 17.4515 12.3063 16.9438L16.8751 19.8C16.7951 20.0678 16.753 20.3455 16.7501 20.625C16.7501 21.2431 16.9333 21.8473 17.2767 22.3612C17.6201 22.8751 18.1081 23.2756 18.6792 23.5121C19.2502 23.7487 19.8785 23.8105 20.4847 23.69C21.0909 23.5694 21.6477 23.2718 22.0848 22.8347C22.5218 22.3977 22.8194 21.8409 22.94 21.2347C23.0606 20.6285 22.9987 20.0001 22.7622 19.4291C22.5257 18.8581 22.1251 18.37 21.6112 18.0267C21.0973 17.6833 20.4931 17.5 19.8751 17.5ZM19.8751 7.50001C20.2459 7.50001 20.6084 7.60997 20.9167 7.816C21.2251 8.02203 21.4654 8.31486 21.6073 8.65747C21.7492 9.00009 21.7864 9.37709 21.714 9.7408C21.6417 10.1045 21.4631 10.4386 21.2009 10.7008C20.9387 10.9631 20.6046 11.1416 20.2408 11.214C19.8771 11.2863 19.5001 11.2492 19.1575 11.1073C18.8149 10.9654 18.5221 10.725 18.316 10.4167C18.11 10.1084 18.0001 9.74585 18.0001 9.37501C18.0001 8.87772 18.1976 8.40081 18.5492 8.04918C18.9009 7.69755 19.3778 7.50001 19.8751 7.50001ZM9.87505 16.875C9.50421 16.875 9.1417 16.765 8.83336 16.559C8.52502 16.353 8.28469 16.0601 8.14278 15.7175C8.00087 15.3749 7.96373 14.9979 8.03608 14.6342C8.10843 14.2705 8.28701 13.9364 8.54923 13.6742C8.81145 13.412 9.14555 13.2334 9.50926 13.161C9.87297 13.0887 10.25 13.1258 10.5926 13.2677C10.9352 13.4096 11.228 13.65 11.4341 13.9583C11.6401 14.2667 11.7501 14.6292 11.7501 15C11.7501 15.4973 11.5525 15.9742 11.2009 16.3258C10.8492 16.6775 10.3723 16.875 9.87505 16.875ZM19.8751 22.5C19.5042 22.5 19.1417 22.39 18.8334 22.184C18.525 21.978 18.2847 21.6852 18.1428 21.3425C18.0009 20.9999 17.9637 20.6229 18.0361 20.2592C18.1084 19.8955 18.287 19.5614 18.5492 19.2992C18.8115 19.037 19.1455 18.8584 19.5093 18.786C19.873 18.7137 20.25 18.7508 20.5926 18.8927C20.9352 19.0346 21.228 19.275 21.4341 19.5833C21.6401 19.8917 21.7501 20.2542 21.7501 20.625C21.7501 21.1223 21.5525 21.5992 21.2009 21.9508C20.8492 22.3025 20.3723 22.5 19.8751 22.5Z" fill="black"/>
</svg>
