<svg width="17" height="16" viewBox="0 0 17 16" fill="none" xmlns="http://www.w3.org/2000/svg">
<path d="M8.5 0.71875C8.38438 0.71875 8.26875 0.721875 8.15312 0.727188L8.17812 1.28906C8.28437 1.28406 8.39062 1.28125 8.5 1.28125C12.2125 1.28125 15.2188 4.2875 15.2188 8C15.2188 11.7125 12.2125 14.7188 8.5 14.7188C5.7 14.7188 3.30156 13.0094 2.29219 10.575L3.15563 10.3156L1.64219 9.24375L1.04688 10.9469L1.75156 10.7375C2.83375 13.4 5.45 15.2812 8.5 15.2812C12.5188 15.2812 15.7812 12.0188 15.7812 8C15.7812 3.98125 12.5188 0.71875 8.5 0.71875ZM7.5375 0.7825C7.12187 0.837188 6.72188 0.92625 6.33125 1.0475L6.50625 1.58156C6.8625 1.47094 7.23438 1.38938 7.6125 1.33938L7.5375 0.7825ZM5.75625 1.255C5.36875 1.41281 5 1.6025 4.65 1.82125L4.94688 2.29656C5.26875 2.09531 5.60938 1.92062 5.96562 1.77562L5.75625 1.255ZM4.1375 2.17188C3.80944 2.41778 3.50263 2.69083 3.22031 2.98813L3.62812 3.37188C3.8875 3.09781 4.17188 2.84656 4.47187 2.62L4.32188 2.41469L4.1375 2.17188ZM6.30937 2.44L6.17188 2.985L12.9531 4.71875L13.0906 4.175L6.30937 2.44ZM2.81469 3.45312C2.55875 3.77187 2.32906 4.11562 2.12906 4.475L2.61812 4.75C2.80281 4.41563 3.01469 4.1 3.25125 3.80312L2.81469 3.45312ZM6.80312 3.72813C6.68125 4.54063 6.89062 5.45312 7.24687 6.20312C7.44687 6.62187 7.69063 6.99062 7.93125 7.25938C8.0625 7.40625 8.19375 7.51875 8.3125 7.6L8.14375 8.2625C8 8.275 7.83125 8.3125 7.64375 8.37813C7.30313 8.49688 6.9125 8.70313 6.5375 8.975C5.8625 9.4625 5.24375 10.1594 4.9625 10.9312L10.1969 12.2719C10.3187 11.4594 10.1094 10.5469 9.75313 9.79688C9.55313 9.37813 9.30938 9.00938 9.06875 8.74063C8.9375 8.59375 8.80625 8.48125 8.6875 8.4L8.85625 7.7375C8.99687 7.72188 9.16875 7.6875 9.35625 7.62187C9.69687 7.50312 10.0875 7.29688 10.4625 7.025C11.1375 6.5375 11.7563 5.84062 12.0375 5.06875L6.80312 3.72813ZM1.85125 5.02812C1.68469 5.40312 1.54812 5.79063 1.445 6.19375L1.99125 6.325C2.08594 5.95625 2.21125 5.6 2.36469 5.25625L1.85125 5.02812ZM1.31875 6.79688C1.25344 7.1875 1.21875 7.59062 1.21875 8V8.02812L1.78125 8.02188V8C1.78125 7.62187 1.81313 7.25 1.87344 6.8875L1.31875 6.79688ZM4.04688 11.2812L3.90937 11.825L10.6906 13.5594L10.8281 13.0156L4.04688 11.2812Z" fill="#787878"/>
</svg>
