<svg width="17" height="16" viewBox="0 0 17 16" fill="none" xmlns="http://www.w3.org/2000/svg">
<path d="M3.48828 2.67969C3.47203 2.67969 3.45234 2.68563 3.43516 2.68875C3.53922 3.19719 3.55828 3.66906 3.54047 4.11906C3.95016 4.08156 4.35328 4.05031 4.75016 4.02219C4.37516 3.61594 4.19703 2.96344 3.69078 2.72406C3.63141 2.70125 3.56828 2.68156 3.51516 2.67969H3.48828ZM8.39078 4.45969C6.39078 4.46594 4.41578 4.59406 2.52453 4.78156C2.41047 4.80344 2.05484 4.85031 2.07109 5.02844C2.07578 5.08781 2.15797 5.23156 2.48516 5.21906C6.50641 5.05656 9.79391 4.89094 13.7689 5.21906C13.9377 5.21281 14.2627 5.25969 14.3752 5.11281C14.247 4.89719 13.9345 4.80969 13.7127 4.77844C11.9439 4.54406 10.1564 4.45344 8.39078 4.45969ZM10.2158 5.60344V6.21906H10.7783V5.61906C10.5908 5.61281 10.4033 5.60656 10.2158 5.60344ZM6.27828 5.63781L5.71578 5.65656V6.21906H6.27828V5.63781ZM3.12109 6.78156C2.66797 6.78156 2.21734 6.90031 1.90234 7.10969C1.58703 7.31906 1.40234 7.59406 1.40234 8.00031V8.00344L1.34109 10.2191H15.7158V10.0441C15.4689 9.29719 15.222 8.45031 14.9283 7.80344C14.7783 7.47531 14.6158 7.20344 14.4533 7.02844C14.2939 6.85344 14.1533 6.78156 13.997 6.78156H3.12109ZM2.43391 7.50031H4.93453V8.21906H1.92484L1.93391 8.00031C1.93391 7.77531 2.16172 7.50031 2.43391 7.50031ZM5.49703 7.50031H11.247V9.50031H5.49703V7.50031ZM11.8095 7.50031H13.622C14.497 7.50031 14.6595 8.70344 14.872 9.50031H11.8095V7.50031ZM1.90141 8.78156H4.93453V9.50031H1.87141L1.90141 8.78156ZM1.32547 10.7816L1.28516 12.2191H3.24047C3.47078 12.0816 3.74078 12.0003 4.02828 12.0003C4.76578 12.0003 5.38141 12.5253 5.52828 13.2191H10.7408C10.8752 12.5097 11.5002 11.9691 12.247 11.9691C12.5564 11.9691 12.8439 12.0628 13.0845 12.2191H15.7158V10.7816H1.32547ZM12.247 12.5316C11.7095 12.5316 11.2783 12.9628 11.2783 13.5003C11.2783 14.0378 11.7095 14.4691 12.247 14.4691C12.7845 14.4691 13.2158 14.0378 13.2158 13.5003C13.2158 12.9628 12.7845 12.5316 12.247 12.5316ZM4.02828 12.5628C3.48891 12.5628 3.05859 12.9941 3.05859 13.5316C3.05859 14.0691 3.48891 14.5003 4.02828 14.5003C4.56578 14.5003 4.99703 14.0691 4.99703 13.5316C4.99703 12.9941 4.56578 12.5628 4.02828 12.5628ZM1.35516 12.7816C1.39391 12.8534 1.44578 12.9253 1.50891 12.9878C1.65391 13.1316 1.84672 13.2191 2.01734 13.2191H2.52828C2.56078 13.0628 2.61734 12.9159 2.69359 12.7816H1.35516ZM13.597 12.7816C13.672 12.9159 13.722 13.0628 13.7533 13.2191H14.4502L15.7158 12.7972V12.7816H13.597Z" fill="#787878"/>
</svg>
